<?xml version="1.0" encoding="iso-8859-1"?>
<!-- Uploaded to: SVG Repo, www.svgrepo.com, Generator: SVG Repo Mixer Tools -->
<svg fill="#ffffff" height="800px" width="800px" version="1.1" id="Layer_1" xmlns="http://www.w3.org/2000/svg"
	xmlns:xlink="http://www.w3.org/1999/xlink" viewBox="0 0 512 512" xml:space="preserve">
	<g>
		<g>
			<path d="M466.283,430.101c-0.235-0.256-0.341-0.555-0.597-0.789c-25.152-22.016-28.352-27.755-28.352-77.312
			c0-1.429-0.299-2.816-0.832-4.117c-0.533-1.301-1.323-2.453-2.304-3.435l-5.995-5.845c-10.432-10.091-30.357-29.525-54.336-56.725
			c3.179-22.059,30.848-52.075,58.624-70.293c0.32-0.213,0.491-0.512,0.789-0.747c0.512-0.427,0.981-0.853,1.429-1.344
			c0.448-0.512,0.789-1.067,1.109-1.643c0.32-0.555,0.597-1.067,0.811-1.664c0.256-0.725,0.363-1.451,0.448-2.219
			c0.043-0.448,0.256-0.853,0.256-1.301c0-0.149-0.085-0.256-0.085-0.405c-0.021-0.747-0.256-1.493-0.448-2.24
			c-0.149-0.576-0.192-1.173-0.448-1.707c-0.021-0.043-0.021-0.064-0.021-0.107c-1.621-3.52-3.669-8.192-6.123-13.739
			c-32.896-74.667-71.872-152.597-112.853-171.2C301.269,3.52,280.661,0,266.645,0h-21.333c-14.016,0-34.624,3.52-50.709,13.248
			c-40.96,18.603-79.936,96.533-112.853,171.221c-2.453,5.547-4.501,10.219-6.123,13.739c-0.021,0.064-0.021,0.128-0.043,0.213
			c-0.128,0.256-0.128,0.576-0.235,0.853c-0.341,1.045-0.597,2.069-0.619,3.115c-0.021,0.107-0.064,0.171-0.064,0.277
			c0,0.299,0.149,0.555,0.171,0.853c0.085,0.96,0.235,1.877,0.555,2.773c0.171,0.469,0.405,0.875,0.64,1.301
			c0.384,0.704,0.811,1.365,1.344,1.984c0.363,0.427,0.768,0.768,1.195,1.131c0.32,0.277,0.533,0.619,0.896,0.853
			c27.776,18.219,55.488,48.235,58.624,70.293c-23.957,27.2-43.883,46.635-54.315,56.725l-5.995,5.845
			c-0.491,0.512-0.768,1.173-1.152,1.749s-0.875,1.067-1.131,1.707c-0.533,1.301-0.832,2.688-0.832,4.117
			c0,49.557-3.2,55.296-28.352,77.312c-0.256,0.235-0.363,0.555-0.597,0.789C25.323,437.611,10.667,457.045,10.667,480v21.333
			c0,5.888,4.779,10.667,10.667,10.667h469.333c5.888,0,10.667-4.779,10.667-10.667V480
			C501.333,457.045,486.677,437.611,466.283,430.101z M410.219,192h-47.552c-5.888,0-10.667,4.779-10.667,10.667
			s4.779,10.667,10.667,10.667h33.067c-15.147,13.568-30.571,30.891-38.443,49.131c-14.507-17.451-29.909-37.355-45.44-59.669
			c18.261-29.248,27.584-105.92,29.184-140.053C369.899,100.992,397.312,162.709,410.219,192z M203.605,32.619
			c0.832-0.363,1.664-0.917,2.496-1.195c1.536-0.512,2.816-1.408,3.904-2.453c15.36-7.275,35.008-7.637,35.328-7.637h21.333
			c0.32,0,19.925,0.363,35.264,7.595c1.088,1.067,2.368,1.963,3.925,2.496c0.853,0.299,1.749,0.875,2.603,1.259
			C315.179,37.376,320,43.968,320,53.333c0,41.536-14.336,128.725-28.459,141.397c-10.496,9.451-35.435,13.099-54.272,8.299
			c-0.299-0.064-0.555-0.128-0.853-0.171c-6.272-1.685-11.819-4.331-15.851-8.043C209.067,184.256,192,93.013,192,53.333
			C192,43.925,196.864,37.312,203.605,32.619z M263.979,225.771L257.941,256h-3.861l-6.016-30.059
			c2.283,0.149,4.565,0.469,6.848,0.469C257.963,226.411,260.971,226.027,263.979,225.771z M116.224,213.333h33.109
			c5.888,0,10.667-4.779,10.667-10.667S155.221,192,149.333,192h-47.595c12.907-29.291,40.341-91.072,69.227-129.323
			c1.92,34.944,13.056,111.509,29.333,139.883c-15.595,22.421-31.061,42.411-45.632,59.925
			C146.795,244.224,131.371,226.901,116.224,213.333z M152.256,298.112c3.904-1.131,6.848-4.373,7.445-8.533
			c17.472-20.203,36.715-44.331,56.192-72.128c2.965,1.621,6.229,2.88,9.536,4.032l9.451,47.275
			c1.003,4.992,5.376,8.576,10.453,8.576h21.333c5.077,0,9.451-3.584,10.453-8.597l9.536-47.68c3.243-1.131,6.485-2.283,9.301-3.776
			c19.52,27.84,38.784,52.032,56.299,72.256c0.64,4.181,3.563,7.424,7.467,8.555c16.128,18.197,30.144,32.64,40.811,43.243H111.424
			C122.112,330.731,136.128,316.288,152.256,298.112z M181.333,490.667H160V480c0-5.888-4.779-10.667-10.667-10.667
			s-10.667,4.779-10.667,10.667v10.667h-21.333V480c0-5.888-4.779-10.667-10.667-10.667S96,474.112,96,480v10.667H74.667V480
			c0-5.888-4.779-10.667-10.667-10.667S53.333,474.112,53.333,480v10.667H32V480c0-17.643,14.357-32,32-32h85.333
			c17.643,0,32,14.357,32,32V490.667z M309.333,480v10.667h-42.667v-53.333c0-5.888-4.779-10.667-10.667-10.667
			c-5.888,0-10.667,4.779-10.667,10.667v53.333h-42.667V480c0-29.419-23.936-53.333-53.333-53.333H79.147
			c12.821-15.637,16.171-31.445,16.704-64h320.299c0.533,32.555,3.883,48.363,16.704,64h-70.187
			C333.269,426.667,309.333,450.581,309.333,480z M480,490.667h-21.333V480c0-5.888-4.779-10.667-10.667-10.667
			c-5.888,0-10.667,4.779-10.667,10.667v10.667H416V480c0-5.888-4.779-10.667-10.667-10.667c-5.888,0-10.667,4.779-10.667,10.667
			v10.667h-21.333V480c0-5.888-4.779-10.667-10.667-10.667S352,474.112,352,480v10.667h-21.333V480c0-17.643,14.357-32,32-32H448
			c17.643,0,32,14.357,32,32V490.667z" />
		</g>
	</g>
</svg>